<svg id="Layer_1" data-name="Layer 1" xmlns="http://www.w3.org/2000/svg" xmlns:xlink="http://www.w3.org/1999/xlink" viewBox="0 0 384 512"><defs><style>.cls-1{fill:none;}.cls-2{fill:#284bf9;}.cls-3{fill:#032a70;}.cls-4{fill:#81a9c8;}.cls-5{fill:#bcd1e1;}.cls-6{fill:#263179;}.cls-7{fill:#90bdff;}.cls-8{fill:#3498ac;}.cls-9{fill:#ff54a1;}.cls-10{clip-path:url(#clip-path);}</style><clipPath id="clip-path" transform="translate(-114 -141)"><rect id="SVGID" class="cls-1" x="170.85" y="271.23" width="259.05" height="249.6"/></clipPath></defs><title>mindspark</title><path class="cls-2" d="M254.52,620.9,432.1,315.15a9.63,9.63,0,0,0-9.62-14.37L304.36,316.84l28.23-148.17a4.81,4.81,0,0,0-8.56-3.8L149.43,395.33a9.62,9.62,0,0,0,8.68,15.38L288.33,397,245.64,617.57A4.81,4.81,0,0,0,254.52,620.9Z" transform="translate(-114 -141)"/><path class="cls-3" d="M204,379a4,4,0,0,1-3.69-6.08L330.88,164.06a4.75,4.75,0,0,0-6.85.81L149.43,395.33a9.62,9.62,0,0,0,8.68,15.38L288.33,397,245.64,617.57a4.67,4.67,0,0,0,3.78,5.57l73.15-231.48A16,16,0,0,0,306,370.84Z" transform="translate(-114 -141)"/><path d="M448.21,294A7.52,7.52,0,0,0,441,290.7L313.68,308l16.38-85.95a7.5,7.5,0,0,0-14.74-2.81L297,315.44a7.49,7.49,0,0,0,8.38,8.83l122.41-16.64L256,603.37l30.36-156.85a7.5,7.5,0,0,0-14.73-2.85l-38.79,200.4a7.51,7.51,0,0,0,4.73,8.45,7.4,7.4,0,0,0,2.63.48,7.51,7.51,0,0,0,6.49-3.73L448.46,301.9A7.51,7.51,0,0,0,448.21,294Z" transform="translate(-114 -141)"/><path d="M277.87,411.61a7.5,7.5,0,0,0,5.93,8.79,7.89,7.89,0,0,0,1.44.14,7.49,7.49,0,0,0,7.35-6.08l3.11-16a7.51,7.51,0,0,0-8.15-8.89L152.46,403.76l170.61-225.2-1.64,8.62A7.5,7.5,0,1,0,336.16,190l7.64-40.09A7.5,7.5,0,0,0,330.45,144L130.05,408.5a7.5,7.5,0,0,0,6.76,12l142.23-15Z" transform="translate(-114 -141)"/><path class="cls-4" d="M206.58,330.83l.1-.17A118.88,118.88,0,1,0,405.52,461l-.1.15c-12.09,18.44-210.93-111.89-198.84-130.34Zm0,0" transform="translate(-114 -141)"/><path class="cls-5" d="M306,277.13a118.76,118.76,0,0,0-99.32,53.53l-.1.17c-12.09,18.45,4.67,90,59.58,126s127.17,22.83,139.26,4.39l.1-.15A118.87,118.87,0,0,0,306,277.13Zm0,0" transform="translate(-114 -141)"/><path class="cls-6" d="M300.87,210.87A11.25,11.25,0,1,0,316,226c-1.54.8-15.92-13.59-15.13-15.13Zm0,0" transform="translate(-114 -141)"/><path class="cls-7" d="M306,209.63a11.2,11.2,0,0,0-5.13,1.24,11.25,11.25,0,0,0,10,16.38A11.08,11.08,0,0,0,316,226a11.07,11.07,0,0,0,1.25-5.12A11.25,11.25,0,0,0,306,209.63Zm0,0" transform="translate(-114 -141)"/><path class="cls-6" d="M476,386a11.24,11.24,0,1,0,15.13,15.13c-1.54.79-15.93-13.59-15.13-15.13Zm0,0" transform="translate(-114 -141)"/><path class="cls-7" d="M481.13,384.75A11.08,11.08,0,0,0,476,386a11.08,11.08,0,0,0-1.25,5.13,11.23,11.23,0,0,0,16.38,10,11.23,11.23,0,0,0-10-16.38Zm0,0" transform="translate(-114 -141)"/><path class="cls-6" d="M300.87,561.12A11.25,11.25,0,1,0,316,576.25c-1.54.8-15.92-13.59-15.13-15.13Zm0,0" transform="translate(-114 -141)"/><path class="cls-7" d="M306,559.88a11.2,11.2,0,0,0-5.13,1.24,11.25,11.25,0,0,0,10,16.38,11.08,11.08,0,0,0,5.13-1.25,11.07,11.07,0,0,0,1.25-5.12A11.25,11.25,0,0,0,306,559.88Zm0,0" transform="translate(-114 -141)"/><path class="cls-6" d="M125.75,386a11.24,11.24,0,1,0,15.13,15.13c-1.54.79-15.93-13.59-15.13-15.13Zm0,0" transform="translate(-114 -141)"/><path class="cls-7" d="M130.88,384.75a11.05,11.05,0,0,0-5.13,1.25,11.08,11.08,0,0,0-1.25,5.13,11.23,11.23,0,0,0,16.38,10,11.23,11.23,0,0,0-10-16.38Zm0,0" transform="translate(-114 -141)"/><path class="cls-6" d="M424.7,262.16a11.25,11.25,0,1,0,15.14,15.14c-1.54.79-15.93-13.6-15.14-15.14Zm0,0" transform="translate(-114 -141)"/><path class="cls-7" d="M429.83,260.92a11.2,11.2,0,0,0-5.13,1.24,11.25,11.25,0,0,0,15.14,15.14,11.25,11.25,0,0,0-10-16.38Zm0,0" transform="translate(-114 -141)"/><path class="cls-6" d="M424.7,509.83A11.24,11.24,0,1,0,439.84,525c-1.54.79-15.93-13.59-15.14-15.13Zm0,0" transform="translate(-114 -141)"/><path class="cls-7" d="M429.83,508.58a11.21,11.21,0,0,0-5.13,1.25A11.24,11.24,0,0,0,439.84,525a11.25,11.25,0,0,0-10-16.38Zm0,0" transform="translate(-114 -141)"/><path class="cls-6" d="M177,509.83A11.24,11.24,0,1,0,192.17,525c-1.54.79-15.92-13.59-15.13-15.13Zm0,0" transform="translate(-114 -141)"/><path class="cls-7" d="M182.17,508.58a11.21,11.21,0,0,0-5.13,1.25A11.23,11.23,0,0,0,192.17,525a11.23,11.23,0,0,0-10-16.38Zm0,0" transform="translate(-114 -141)"/><path class="cls-6" d="M177,262.16a11.25,11.25,0,1,0,15.13,15.14c-1.54.79-15.92-13.6-15.13-15.14Zm0,0" transform="translate(-114 -141)"/><path class="cls-7" d="M182.17,260.92a11.2,11.2,0,0,0-5.13,1.24,11.24,11.24,0,0,0,15.13,15.14,11.23,11.23,0,0,0-10-16.38Zm0,0" transform="translate(-114 -141)"/><path d="M306,588a16.89,16.89,0,0,1-16.87-16.87c0-.31,0-.6,0-.9l-94.44-39.12A16.87,16.87,0,1,1,199,519.83c0,.3,0,.6,0,.89l94.44,39.12a16.86,16.86,0,0,1,25.08,0L413,520.72c0-.29,0-.59,0-.89a16.89,16.89,0,1,1,4.33,11.28l-94.44,39.12c0,.3,0,.59,0,.9A16.89,16.89,0,0,1,306,588Zm0-22.5a5.63,5.63,0,1,0,5.62,5.63A5.63,5.63,0,0,0,306,565.5Zm123.83-51.29a5.63,5.63,0,1,0,5.63,5.62,5.62,5.62,0,0,0-5.63-5.62Zm-247.66,0a5.63,5.63,0,1,0,5.62,5.62,5.63,5.63,0,0,0-5.62-5.62ZM306,520.5a124.5,124.5,0,1,1,68.18-228.69,5.63,5.63,0,1,1-6.17,9.41A112.4,112.4,0,0,0,348,290.78,99.88,99.88,0,0,1,362,309a129.7,129.7,0,0,1,7.3,13.86H392.5a113.84,113.84,0,0,0-9-9.43,5.63,5.63,0,0,1,7.71-8.2A124.5,124.5,0,0,1,306,520.5Zm5.62-51.37v39.72c15.22-2.2,29.52-13.26,40.75-31.72q2.36-3.86,4.44-8Zm-56.43,0q2.08,4.14,4.44,8c11.23,18.46,25.53,29.52,40.75,31.72V469.13Zm114.09,0A130.5,130.5,0,0,1,362,483a99.64,99.64,0,0,1-14,18.19,113.85,113.85,0,0,0,44.4-32Zm-149.69,0a113.85,113.85,0,0,0,44.4,32A100,100,0,0,1,250,483a130.5,130.5,0,0,1-7.3-13.85Zm154.22-11.25h27a112.63,112.63,0,0,0,18.3-56.25H383.92a183.32,183.32,0,0,1-10.11,56.25Zm-62.19,0h50.2c6.52-16.72,10.26-36,10.85-56.25H311.62Zm-61.44,0h50.2V401.63h-61c.59,20.26,4.33,39.53,10.85,56.25Zm-39,0h27a183,183,0,0,1-10.11-56.25H192.89a112.63,112.63,0,0,0,18.3,56.25Zm172.73-67.5h35.19a111.78,111.78,0,0,0-18.18-56.25H373.81a183.21,183.21,0,0,1,10.11,56.25Zm-72.3,0h61.05c-.58-20.27-4.33-39.54-10.85-56.25h-50.2v13.12a5.62,5.62,0,1,1-11.24,0V334.13h-50.2c-6.52,16.71-10.26,36-10.85,56.25h61V369.75a5.62,5.62,0,0,1,11.24,0Zm-118.73,0h35.19a182.91,182.91,0,0,1,10.11-56.25h-27a112.56,112.56,0,0,0-18.3,56.25Zm118.73-67.5h45.19q-2.08-4.15-4.44-8c-11.23-18.46-25.53-29.52-40.75-31.72Zm-56.43,0h45.19V283.15c-15.22,2.2-29.52,13.26-40.75,31.72q-2.36,3.86-4.44,8Zm-35.6,0h23.13A129.7,129.7,0,0,1,250,309a99.64,99.64,0,0,1,14-18.19,113.77,113.77,0,0,0-44.4,32.05ZM442,496.18a5.63,5.63,0,0,1-5.2-7.78l33.08-79.86a16.86,16.86,0,0,1,0-25.08L430.72,289c-.29,0-.59,0-.89,0a16.89,16.89,0,1,1,11.28-4.33l39.12,94.44c.3,0,.59,0,.9,0a16.88,16.88,0,0,1,0,33.75c-.31,0-.6,0-.9,0L447.16,492.7a5.64,5.64,0,0,1-5.2,3.48Zm39.17-105.8a5.63,5.63,0,1,0,5.62,5.62,5.63,5.63,0,0,0-5.62-5.62Zm-51.3-123.84a5.63,5.63,0,1,0,5.63,5.63,5.63,5.63,0,0,0-5.63-5.63ZM170,496.18a5.64,5.64,0,0,1-5.2-3.48l-33.07-79.85c-.3,0-.59,0-.89,0a16.88,16.88,0,1,1,0-33.75c.3,0,.59,0,.89,0l39.12-94.44a16.87,16.87,0,1,1,23.82-23.82l94.44-39.12c0-.3,0-.59,0-.89a16.87,16.87,0,1,1,33.74,0c0,.3,0,.59,0,.89l80,33.12a5.62,5.62,0,1,1-4.31,10.39l-80-33.12a16.86,16.86,0,0,1-25.08,0L199,271.28c0,.29,0,.59,0,.89A16.89,16.89,0,0,1,182.17,289c-.3,0-.6,0-.89,0l-39.12,94.44a16.86,16.86,0,0,1,0,25.08l33.07,79.86a5.63,5.63,0,0,1-5.19,7.78Zm-39.16-105.8A5.63,5.63,0,1,0,136.5,396a5.63,5.63,0,0,0-5.62-5.62Zm51.29-123.84a5.63,5.63,0,1,0,5.62,5.63,5.64,5.64,0,0,0-5.62-5.63ZM306,215.25a5.63,5.63,0,1,0,5.62,5.63,5.63,5.63,0,0,0-5.62-5.63Zm0,0" transform="translate(-114 -141)"/><path class="cls-7" d="M426.15,396c0,66.6-53.73,120.6-120,120.6s-120-54-120-120.6,53.73-120.6,120-120.6a120.3,120.3,0,0,1,120,120.6Zm0,0" transform="translate(-114 -141)"/><path class="cls-6" d="M306.13,275.43c-2.54,0-5.08.08-7.59.23C361.29,279.6,411,332,411,396S361.29,512.46,298.54,516.39c2.51.16,5,.24,7.59.24,66.29,0,120-54,120-120.6s-53.73-120.6-120-120.6Zm0,0" transform="translate(-114 -141)"/><path class="cls-8" d="M241.21,291.73a3.8,3.8,0,0,0-4.06,5.6q3.63-2.56,7.45-4.86c-1.13-.26-2.25-.5-3.39-.74Zm0,0" transform="translate(-114 -141)"/><path class="cls-8" d="M185.44,380.3a3.8,3.8,0,0,0,1.44,2.1q.38-3.34.93-6.63a3.8,3.8,0,0,0-2.37,4.53Zm0,0" transform="translate(-114 -141)"/><path class="cls-8" d="M234.93,495a3.81,3.81,0,0,0,.15,1c0,.11.07.21.11.32h0a3.79,3.79,0,0,0,3.72,3.07,3.61,3.61,0,0,0,.73-.07,3.78,3.78,0,0,0,2.24-1.36l.1,0c-2.54-1.62-5-3.34-7.43-5.14.12.72.25,1.43.38,2.15Zm0,0" transform="translate(-114 -141)"/><path class="cls-8" d="M372.63,499.36a3.68,3.68,0,0,0,.73.07,3.79,3.79,0,0,0,3.72-3.07c.23-1.18.45-2.36.65-3.53q-3.6,2.69-7.39,5.11a3.83,3.83,0,0,0,2.29,1.42Zm0,0" transform="translate(-114 -141)"/><path class="cls-8" d="M375.54,294.69a3.8,3.8,0,0,0-4.48-3c-1.13.24-2.26.48-3.39.74q3.82,2.29,7.45,4.86a3.79,3.79,0,0,0,.42-2.64Zm0,0" transform="translate(-114 -141)"/><path class="cls-8" d="M404.82,324a3.8,3.8,0,0,0-5.64-4.12c1.75,2.16,3.43,4.39,5,6.67l.6-2.55Zm0,0" transform="translate(-114 -141)"/><path class="cls-9" d="M317.68,323.28a11.54,11.54,0,1,1-11.55-11.6,11.58,11.58,0,0,1,11.55,11.6Zm0,0" transform="translate(-114 -141)"/><path class="cls-9" d="M272.76,374.24a11.54,11.54,0,1,1-11.54-11.6,11.56,11.56,0,0,1,11.54,11.6Zm0,0" transform="translate(-114 -141)"/><path class="cls-9" d="M377.73,403.84a11.54,11.54,0,1,1-11.54-11.6,11.57,11.57,0,0,1,11.54,11.6Zm0,0" transform="translate(-114 -141)"/><path class="cls-9" d="M238.73,506.57A11.6,11.6,0,1,1,250.27,495a11.58,11.58,0,0,1-11.54,11.6Zm0,0" transform="translate(-114 -141)"/><path class="cls-9" d="M374.21,507.23a11.6,11.6,0,1,1,11.54-11.6,11.58,11.58,0,0,1-11.54,11.6Zm0,0" transform="translate(-114 -141)"/><path class="cls-9" d="M401.12,334.29a11.6,11.6,0,1,1,11.54-11.6,11.58,11.58,0,0,1-11.54,11.6Zm0,0" transform="translate(-114 -141)"/><path class="cls-9" d="M371.82,307.05a11.6,11.6,0,1,1,11.54-11.6,11.58,11.58,0,0,1-11.54,11.6Zm0,0" transform="translate(-114 -141)"/><path class="cls-9" d="M238.73,307.05a11.6,11.6,0,1,1,11.54-11.6,11.58,11.58,0,0,1-11.54,11.6Zm0,0" transform="translate(-114 -141)"/><g class="cls-10"><path class="cls-9" d="M197.66,380.21a11.54,11.54,0,1,1-11.54-11.6,11.57,11.57,0,0,1,11.54,11.6Zm0,0" transform="translate(-114 -141)"/><path d="M419.87,445.24c.07-.15.14-.31.2-.47,15.34-35.42,12.6-78.85-7.34-112,10.65-12.72-3.18-30.94-18.29-23.89-2.66-2.72-5.45-5.32-8.34-7.78,5.67-15.42-13.26-28.07-25.05-16.55-34.27-17.31-76.9-17.09-111,.58-12.12-12.84-32.49.93-25.15,17.05A126.23,126.23,0,0,0,213.06,314c-3.17,3.63,2.57,8.6,5.72,5a117.07,117.07,0,0,1,11-11,15.47,15.47,0,0,0,22.65-5.64,165,165,0,0,1,38.91,16.83,15.61,15.61,0,0,0,1.15,11.17,174.63,174.63,0,0,0-26.87,29.18,15.5,15.5,0,0,0-18.35,8.31,237,237,0,0,0-47.65,5.13,15.5,15.5,0,0,0-6-6.16,116,116,0,0,1,13.92-32.58c2.51-4-3.83-8.23-6.45-4a123.79,123.79,0,0,0-14.81,34.63c-18.19.31-21.24,25.47-3.93,30.31a125.43,125.43,0,0,0,42.08,94.34c-5.6,15.12,12.58,27.6,24.58,16.93,35,18.62,79.27,18.63,114.29,0,12.2,12.07,31.75-1.42,24.87-17.19a124.3,124.3,0,0,0,31.72-44Zm-4.78-8.49a238.44,238.44,0,0,0-34.29-28.22A15.55,15.55,0,0,0,377,392.89a237.31,237.31,0,0,0,24.14-54.81,15,15,0,0,0,5.41-1c17.48,29.53,20.68,67.6,8.59,99.65Zm-174.7,42.92a166.44,166.44,0,0,1,16.29-90.73,15.51,15.51,0,0,0,19.61-11.83,227.7,227.7,0,0,1,75,22.88,15.59,15.59,0,0,0,2.51,13,229.06,229.06,0,0,1-102.16,73.78,15.37,15.37,0,0,0-11.3-7.08Zm118.05-75.83a7.79,7.79,0,0,1,7.75-7.8c10.27.43,10.27,15.18,0,15.6a7.79,7.79,0,0,1-7.75-7.8Zm50.43-81.15a7.79,7.79,0,0,1-7.75,7.8c-10.27-.43-10.27-15.18,0-15.6a7.79,7.79,0,0,1,7.75,7.8Zm-20.23-8.92a15.57,15.57,0,0,0,5.1,22.41A229.66,229.66,0,0,1,370.4,389a15.49,15.49,0,0,0-6.53-.42,176,176,0,0,0-44.11-58.29,15.62,15.62,0,0,0,1.15-11.17,164.84,164.84,0,0,1,37.41-16.4,15.36,15.36,0,0,0,23.34,4.49q3.61,3.11,7,6.52Zm-90.25,9.51a7.78,7.78,0,0,1,7.74-7.8c10.28.42,10.28,15.17,0,15.6a7.78,7.78,0,0,1-7.74-7.8Zm73.43-35.63a7.75,7.75,0,1,1-7.74,7.8,7.79,7.79,0,0,1,7.74-7.8ZM238.73,303.26a7.75,7.75,0,1,1,7.74-7.81,7.79,7.79,0,0,1-7.74,7.81Zm15.32-8.39a14.85,14.85,0,0,0-.43-3.07c31.78-16.43,71.49-16.72,103.51-.76a15.49,15.49,0,0,0-.65,4.34,172.29,172.29,0,0,0-39.34,17.19,15.45,15.45,0,0,0-22,0,172.68,172.68,0,0,0-41.09-17.7ZM297.53,336a15.42,15.42,0,0,0,17.21,0,168.35,168.35,0,0,1,42.14,55.6,15.28,15.28,0,0,0-1.89,1.71,234.92,234.92,0,0,0-79.21-23.93,15.42,15.42,0,0,0-3.63-5.95A166.77,166.77,0,0,1,297.53,336Zm-36.31,30.41a7.75,7.75,0,1,1-7.74,7.81,7.79,7.79,0,0,1,7.74-7.81Zm-82.85,13.78a7.79,7.79,0,0,1,7.75-7.8c10.27.43,10.27,15.18,0,15.6a7.79,7.79,0,0,1-7.75-7.8Zm11.55,14.92s11.54-2.52,11.54-14.82c0,0,29.59-4.73,44.47-4.89a15.39,15.39,0,0,0,4.26,9.5,174.18,174.18,0,0,0-17.33,95.83,15.63,15.63,0,0,0-4,2.48c-24.77-22.19-38.9-59.36-38.9-88.1Zm48.81,107.64a7.8,7.8,0,0,1,0-15.6,7.92,7.92,0,0,1,7.74,7.8,7.78,7.78,0,0,1-7.74,7.8Zm67.4,10.06A115.94,115.94,0,0,1,253.2,500,15.57,15.57,0,0,0,254,494a236.72,236.72,0,0,0,105.69-76.19,15.21,15.21,0,0,0,7.28,1.42,165.86,165.86,0,0,1,4,19c.73,4.88,8.24,3.79,7.51-1.11a174.75,174.75,0,0,0-4.22-20.21,15.92,15.92,0,0,0,2.52-2A230.21,230.21,0,0,1,412,444.37a116.89,116.89,0,0,1-28.57,38.93,15.6,15.6,0,0,0-4-2.17,175.4,175.4,0,0,0,1-21.23c-.08-5-7.67-4.84-7.6.12a168.16,168.16,0,0,1-.93,20.41,15.56,15.56,0,0,0-12.34,19.41,115.94,115.94,0,0,1-53.33,13Zm68.08-9.4a7.75,7.75,0,1,1,7.75-7.8,7.78,7.78,0,0,1-7.75,7.8Zm0,0" transform="translate(-114 -141)"/></g></svg>