<?xml version="1.0" encoding="utf-8"?>
<!-- Generator: Adobe Illustrator 23.0.5, SVG Export Plug-In . SVG Version: 6.00 Build 0)  -->
<svg version="1.1" id="a94a9f60-17a5-42de-a684-10576d4e5b49"
	 xmlns="http://www.w3.org/2000/svg" xmlns:xlink="http://www.w3.org/1999/xlink" x="0px" y="0px" viewBox="0 0 564 588.8"
	 style="enable-background:new 0 0 564 588.8;" xml:space="preserve">
<style type="text/css">
	.st0{fill:#FFB9B9;}
	.st1{fill:#E6E6E6;}
	.st2{fill:#3F3D56;}
	.st3{fill:#2F2E41;}
	.st4{fill:#4154F1;}
	.st5{fill:#FFFFFF;}
	.st6{clip-path:url(#SVGID_2_);}
	.st7{clip-path:url(#SVGID_4_);}
	.st8{fill:#284BF9;}
	.st9{fill:#032A70;}
	.st10{fill:#81A9C8;}
	.st11{fill:#BCD1E1;}
	.st12{fill:#263179;}
	.st13{fill:#90BDFF;}
	.st14{fill:#3498AC;}
	.st15{fill:#FF54A1;}
	.st16{clip-path:url(#SVGID_6_);}
	.st17{enable-background:new    ;}
</style>
<title>undraw_visionary_technology_33jy</title>
<path class="st0" d="M51.2,271.1L44,313.4c0,0,1.7,39.6,15,38.4s0-41.2,0-41.2l12.8-35.1L51.2,271.1z"/>
<path class="st1" d="M76.8,208.2l-5,62.9l-23.9-3.3l8.3-52.3v-45.1l9.5-9.5L76.8,208.2z"/>
<polygon class="st2" points="49,275.6 73.5,280 74.6,268.4 46.8,267.2 "/>
<polygon class="st0" points="87.7,102.7 90.2,121.9 92.7,141.1 126.7,136.1 123.3,102.7 "/>
<path class="st0" d="M174.3,261.7l-7.8,30.1l-6.7,10.6c0,0,5,20,10,19.5s8.4-19.5,8.4-19.5l18.9-40.6L174.3,261.7z"/>
<path class="st3" d="M81.3,284.5c0,0-3.9,18.9-12.8,27.3s20.6,229.9,20.6,229.9s20.6,6.7,30.6,7.8s3.9-117.5,3.9-117.5v-32.3
	c0,0,20,127.5,20,129.2v8.4l10,10.6c0,0,17.3-4.5,20,0s10,5,12.2,6.7s-12.8-231.6-12.8-231.6l-15.6-24.5L81.3,284.5z"/>
<circle class="st0" cx="104.7" cy="86.9" r="26.7"/>
<path class="st1" d="M155.3,177.6c0,1.1,16.1,46.8,15,48.4s1.1,30.6,1.1,30.6h29c0.8-2.1,1.1-4.4,1.1-6.7c0-3.9-5-46.8-10.6-72.9
	s-22.8-37.9-22.8-37.9l-3.9,2.2C164.3,141.4,155.3,176.5,155.3,177.6z"/>
<polygon class="st2" points="171.5,265.6 196,265 204.9,256.7 169.8,254.4 "/>
<path class="st2" d="M104.7,302.3l5,19.5c0,0,20-3.9,27.8-6.7s29.5-5.6,29.5-5.6l-7.2-13.4L104.7,302.3z"/>
<polygon class="st2" points="68.5,298.4 65.7,315.7 90.2,320.7 96.3,302.3 "/>
<path class="st1" d="M90.2,132c0,0-2.2,5-16.7,10s-17.3,28.4-17.3,28.4s17.3,46.8,16.7,50.1s2.2,11.1,2.2,11.1L72.4,279l-5.6,21.1
	c49.5,18.4,96.9-2.8,96.9-2.8s-2.2-20.6-1.1-26.2s2.8-56.8,2.8-56.8l2.8-75.2l-32.8-11.7l-5.6-4.5c0,0-1.1-12.8-2.7-13.9
	c-1.6-1.1-6.1,4.4-12.3,11.1c-6.1,6.7-18.9,5.6-22.8,3.3s-5.6-1.1-5.6-1.1C83.5,124.7,90.2,132,90.2,132z"/>
<path class="st3" d="M124.5,75.6c-3.3-9.2-17-2-29.7,0.4s-12.1,26.7-12.1,26.7s-7.8-12.9-7.8-27.3s6.9-11,7.8-13.1s3.5-0.6,3.5-0.6
	s1.4-5.3,5.2-4.6c2.1,0.5,4.4-0.3,5.7-2.1c18.6-9.9,15.7-0.8,22.7,0.5s6,3,8.2,7c1.8,3.6,3.3,7.4,4.5,11.3c-0.1,2.6,0.1,5.2,0.8,7.8
	c1.1,4.5-1.7,8.6-1.7,8.6C128.7,85.7,126.3,80.8,124.5,75.6z"/>
<ellipse class="st0" cx="82.4" cy="92.7" rx="2.5" ry="3.3"/>
<path class="st3" d="M116.2,540.7l2.9,23.5c0,0,2.9,5.9,0,8.8s0,10.8,0,10.8s-6.8,5.9-22.5,4.9s-11.8-13.7-7.8-19.6
	s3.9-17.6,3.9-17.6l3.9-11.7L116.2,540.7z"/>
<path class="st3" d="M153.3,540.7l-2.9,23.5c0,0-2.9,5.9,0,8.8s0,10.8,0,10.8s6.9,5.9,22.5,4.9s11.8-13.7,7.8-19.6
	s-3.9-17.6-3.9-17.6l-3.9-11.7L153.3,540.7z"/>
<path class="st2" d="M520,140h-3.2V51.3c0-28.3-23-51.3-51.3-51.3H277.7c-28.3,0-51.3,23-51.3,51.3l0,0v486.2
	c0,28.3,23,51.3,51.3,51.3h187.8c28.3,0,51.3-23,51.3-51.3c0,0,0,0,0,0V203h3.2L520,140z"/>
<path class="st4" d="M467.5,13.3H443c3.8,9.3-0.7,19.9-10,23.7c-2.2,0.9-4.5,1.3-6.9,1.3H318.6c-10,0-18.2-8.2-18.2-18.2
	c0-2.4,0.5-4.7,1.4-6.9h-22.9c-21.2,0-38.3,17.2-38.3,38.3c0,0,0,0,0,0v485.5c0,21.2,17.2,38.3,38.3,38.3h188.7
	c21.2,0,38.3-17.1,38.3-38.3l0,0V51.6C505.9,30.5,488.7,13.3,467.5,13.3C467.5,13.3,467.5,13.3,467.5,13.3z"/>
<g>
	<path class="st5" d="M321.8,193.5h-10.1c-1,0-1.9-0.8-1.9-1.9v-22.7c0-1,0.8-1.9,1.9-1.9h22.7c1,0,1.9,0.8,1.9,1.9V179
		c0,1-0.8,1.9-1.9,1.9h-10.7v10.7C323.7,192.6,322.9,193.5,321.8,193.5z M313.6,189.7h6.3V179c0-1,0.8-1.9,1.9-1.9h10.7v-6.3h-18.9
		V189.7z"/>
	<path class="st5" d="M437,193.5h-10.1c-1,0-1.9-0.8-1.9-1.9l0,0v-10.7h-10.7c-1,0-1.9-0.8-1.9-1.9l0,0v-10.1c0-1,0.8-1.9,1.9-1.9
		l0,0H437c1,0,1.9,0.8,1.9,1.9v22.7C438.9,192.6,438,193.5,437,193.5L437,193.5L437,193.5z M428.8,189.7h6.3v-18.9h-18.9v6.3h10.7
		c1,0,1.9,0.8,1.9,1.9L428.8,189.7z"/>
	<path class="st5" d="M334.4,296h-22.7c-1,0-1.9-0.8-1.9-1.9v-22.7c0-1,0.8-1.9,1.9-1.9h10.1c1,0,1.9,0.8,1.9,1.9v10.7h10.7
		c1,0,1.9,0.8,1.9,1.9v10.1C336.3,295.1,335.5,296,334.4,296C334.5,296,334.5,296,334.4,296z M313.7,292.2h18.9v-6.3h-10.7
		c-1,0-1.9-0.8-1.9-1.9l0,0v-10.7h-6.3L313.7,292.2z"/>
	<path class="st5" d="M437,296h-22.7c-1,0-1.9-0.8-1.9-1.9V284c0-1,0.8-1.9,1.9-1.9H425v-10.7c0-1,0.8-1.9,1.9-1.9l0,0H437
		c1,0,1.9,0.8,1.9,1.9v22.7C438.9,295.1,438,296,437,296C437,296,437,296,437,296z M416.2,292.2h18.9v-18.9h-6.3V284
		c0,1-0.8,1.9-1.9,1.9l0,0h-10.7V292.2z"/>
	<path class="st5" d="M374.4,264.2c-4,0-7.8-1.7-10.5-4.6c-0.7-0.7-0.7-1.9,0-2.7c0.7-0.7,1.9-0.7,2.7,0c0,0,0.1,0.1,0.1,0.1
		c3.9,4.3,10.6,4.5,14.8,0.6c0.2-0.2,0.4-0.4,0.6-0.6c0.7-0.8,1.9-0.9,2.7-0.2c0.8,0.7,0.9,1.9,0.2,2.7c0,0-0.1,0.1-0.1,0.1
		C382.2,262.6,378.4,264.2,374.4,264.2L374.4,264.2z"/>
	<path class="st5" d="M359.8,243.6c-1,0-1.9-0.8-1.9-1.9v-3.3c-0.1-1,0.7-1.9,1.8-2c1-0.1,1.9,0.7,2,1.8c0,0.1,0,0.2,0,0.2v3.3
		C361.7,242.8,360.9,243.6,359.8,243.6L359.8,243.6z"/>
	<path class="st5" d="M388.9,243.6c-1,0-1.9-0.8-1.9-1.9v-3.3c0-1,0.8-1.9,1.9-1.9s1.9,0.8,1.9,1.9v3.3
		C390.8,242.8,389.9,243.6,388.9,243.6L388.9,243.6z"/>
	<path class="st5" d="M409.6,232.2h-3.1v-10c0-2-0.3-3.9-0.9-5.7c8.7-3.2,13.2-12.9,10-21.7c-2.4-6.7-8.8-11.1-15.9-11h-4.6
		c-1,0-1.9,0.8-1.9,1.9c0,1,0.8,1.9,1.9,1.9h4.6c7.2-0.2,13.2,5.6,13.4,12.8c0.2,7.2-5.6,13.2-12.8,13.4c-0.2,0-0.4,0-0.6,0h-30.3
		c-1-0.1-1.9,0.7-2,1.8c-0.1,1,0.7,1.9,1.8,2c0.1,0,0.2,0,0.2,0h30.3c0.7,0,1.5,0,2.2-0.1c0.5,1.6,0.8,3.2,0.8,4.8v28.5
		c0,13.4-10.8,24.3-24.3,24.6c-1,0-1.9,0.8-1.9,1.9s0.8,1.9,1.9,1.9l0,0c15.3-0.2,27.6-12.4,28-27.7h3.2c3.8,0,6.9-3.1,6.9-6.9v-5.4
		C416.5,235.4,413.4,232.3,409.6,232.2L409.6,232.2z M412.8,244.5c0,1.7-1.4,3.1-3.1,3.1h-3.1V236h3.1c1.7,0,3.1,1.4,3.1,3.1V244.5z
		"/>
	<path class="st5" d="M370.3,275.4c-13.4-0.2-24.2-11.1-24.3-24.6v-16.2c6.6-2.9,10.4-10,9.8-17.1h5.3c1,0.1,1.9-0.7,2-1.8
		c0.1-1-0.7-1.9-1.8-2c-0.1,0-0.2,0-0.2,0H354c-1,0-1.9,0.8-1.9,1.9c0.4,6.5-1.6,13.6-8.5,15.9c-2.5,0.9-7.6,1.5-7.6-2.8v-13.5
		c0-5.3,3.4-10.1,8.4-11.9c0.5-0.2,0.9-0.6,1.1-1.1c3.4-8.8,12-14.7,21.5-14.6h19.9c1,0,1.9-0.8,1.9-1.9c0-1-0.8-1.9-1.9-1.9h-19.9
		c-10.7,0.1-20.4,6.4-24.7,16.2c-6.1,2.6-10.1,8.5-10.1,15.2v13.5c0,2,0.8,3.9,2.3,5.3c-1.5,1.3-2.3,3.2-2.3,5.1v5.4
		c0,3.8,3.1,6.9,6.9,6.9h3.2c0.4,15.2,12.7,27.5,28,27.7l0,0c1,0,1.9-0.8,1.9-1.9S371.3,275.4,370.3,275.4L370.3,275.4z
		 M335.9,244.6v-5.4c0-1.7,1.4-3.1,3.1-3.1h3.2v11.7h-3.1C337.4,247.7,336,246.3,335.9,244.6L335.9,244.6z"/>
</g>
<g>
	<circle class="st5" cx="373.4" cy="462.8" r="44.3"/>
	<g>
		<defs>
			<rect id="SVGID_1_" x="333.6" y="409.2" width="79.6" height="103"/>
		</defs>
		<clipPath id="SVGID_2_">
			<use xlink:href="#SVGID_1_"  style="overflow:visible;"/>
		</clipPath>
		<g class="st6">
			<g>
				<defs>
					<rect id="SVGID_3_" x="333.6" y="409.2" width="79.6" height="103"/>
				</defs>
				<clipPath id="SVGID_4_">
					<use xlink:href="#SVGID_3_"  style="overflow:visible;"/>
				</clipPath>
				<g class="st7">
					<path class="st8" d="M366.7,489.9l23.1-39.8c0.3-0.6,0.1-1.4-0.5-1.7c-0.2-0.1-0.5-0.2-0.8-0.2l-15.4,2.1l3.7-19.3
						c0.1-0.3-0.1-0.7-0.5-0.7c-0.2-0.1-0.5,0-0.6,0.2l-22.7,30c-0.4,0.5-0.3,1.3,0.2,1.7c0.3,0.2,0.6,0.3,0.9,0.2l16.9-1.8
						l-5.5,28.7c-0.1,0.3,0.1,0.7,0.5,0.7C366.3,490.3,366.6,490.2,366.7,489.9"/>
					<path class="st9" d="M360.2,458.5c-0.3,0-0.5-0.2-0.6-0.5c0-0.1,0-0.2,0.1-0.3l17-27.2c-0.3-0.2-0.7-0.2-0.9,0.1c0,0,0,0,0,0
						l-22.7,30c-0.4,0.5-0.3,1.3,0.2,1.7c0.3,0.2,0.6,0.3,0.9,0.2l16.9-1.8l-5.5,28.7c-0.1,0.3,0.1,0.7,0.5,0.7c0,0,0,0,0,0
						l9.5-30.1c0.3-1.1-0.3-2.3-1.4-2.6c-0.3-0.1-0.5-0.1-0.8-0.1L360.2,458.5z"/>
					<path d="M391.9,447.4c-0.2-0.3-0.6-0.5-0.9-0.4l-16.6,2.3l2.1-11.2c0.1-0.5-0.2-1-0.8-1.1c0,0,0,0,0,0c-0.5-0.1-1,0.3-1.1,0.8
						l-2.4,12.5c-0.1,0.3,0,0.6,0.2,0.9c0.2,0.2,0.5,0.3,0.8,0.3l15.9-2.2L367,487.6l3.9-20.4c0.1-0.5-0.2-1.1-0.7-1.2
						c-0.5-0.1-1.1,0.2-1.2,0.7c0,0,0,0.1,0,0.1l-5,26.1c-0.1,0.5,0.2,0.9,0.6,1.1c0.1,0,0.2,0.1,0.3,0.1c0.3,0,0.7-0.2,0.8-0.5
						l26.2-45.2C392.2,448.1,392.2,447.7,391.9,447.4"/>
					<path d="M369.8,462.7c-0.1,0.5,0.2,1,0.8,1.1c0,0,0,0,0,0h0.2c0.5,0,0.9-0.3,1-0.8l0.4-2.1c0.1-0.5-0.2-1-0.8-1.1
						c-0.1,0-0.2,0-0.3,0l-17.6,1.9l22.2-29.3l-0.2,1.1c-0.1,0.5,0.2,1,0.8,1.1c0.5,0.1,1-0.2,1.1-0.8l1-5.2
						c0.1-0.4-0.1-0.9-0.6-1.1c-0.4-0.2-0.9-0.1-1.2,0.3l-26.1,34.4c-0.3,0.4-0.3,1,0.1,1.4c0.2,0.2,0.5,0.2,0.7,0.2l18.5-1.9
						L369.8,462.7z"/>
					<path class="st10" d="M360.5,452.2L360.5,452.2c-4.8,7.1-2.9,16.7,4.2,21.4c7.1,4.8,16.7,2.9,21.4-4.2c0.1-0.1,0.1-0.2,0.2-0.3
						l0,0C384.8,471.5,358.9,454.6,360.5,452.2"/>
					<path class="st11" d="M373.4,445.2c-5.2,0-10.1,2.6-12.9,7l0,0c-1.6,2.4,0.6,11.7,7.7,16.4c7.1,4.7,16.5,3,18.1,0.6l0,0
						c4.7-7.1,2.7-16.7-4.5-21.4C379.4,446.1,376.4,445.2,373.4,445.2"/>
					<path class="st12" d="M372.7,436.6c-0.7,0.4-1,1.3-0.6,2s1.3,1,2,0.6c0.3-0.1,0.5-0.4,0.6-0.6
						C373.9,438.1,373.2,437.4,372.7,436.6"/>
					<path class="st13" d="M373.4,436.4c-0.2,0-0.5,0.1-0.7,0.2c-0.1,0.2-0.2,0.4-0.2,0.7c0,0.8,0.7,1.5,1.5,1.5
						c0.2,0,0.5-0.1,0.7-0.2c0.4-0.7,0.1-1.6-0.6-2C373.9,436.5,373.6,436.4,373.4,436.4"/>
					<path class="st12" d="M395.5,459.4c-0.7,0.4-1,1.2-0.6,2c0.4,0.7,1.2,1,2,0.6c0.3-0.1,0.5-0.4,0.6-0.6
						C396.7,460.8,396,460.2,395.5,459.4"/>
					<path class="st13" d="M396.2,459.2c-0.4-0.1-0.7,0.1-0.8,0.5c0,0.1,0,0.2,0,0.3c0,0.8,0.7,1.5,1.5,1.5c0.2,0,0.5-0.1,0.7-0.2
						c0.4-0.7,0.1-1.6-0.6-2C396.6,459.2,396.4,459.2,396.2,459.2"/>
					<path class="st12" d="M372.7,482.1c-0.5,0.3-0.8,0.8-0.8,1.3c0,0.8,0.7,1.5,1.5,1.5c0.5,0,1-0.3,1.3-0.8
						C373.9,483.6,373.2,482.9,372.7,482.1"/>
					<path class="st13" d="M373.4,482c-0.8,0-1.5,0.6-1.5,1.5c0,0.8,0.6,1.5,1.5,1.5c0.8,0,1.5-0.6,1.5-1.5c0,0,0,0,0,0
						C374.9,482.6,374.2,482,373.4,482"/>
					<path class="st12" d="M350,459.4c-0.7,0.4-1,1.3-0.6,2s1.3,1,2,0.6c0.3-0.1,0.5-0.4,0.6-0.6C351.2,460.8,350.5,460.2,350,459.4
						"/>
					<path class="st13" d="M350.7,459.2c-0.8,0-1.4,0.7-1.4,1.5c0,0.8,0.7,1.4,1.5,1.4c0.8,0,1.4-0.6,1.4-1.4
						C352.1,459.9,351.5,459.2,350.7,459.2C350.7,459.2,350.7,459.2,350.7,459.2"/>
					<path class="st12" d="M388.9,443.3c-0.7,0.4-1,1.2-0.6,2c0.3,0.5,0.8,0.8,1.3,0.8c0.5,0,1-0.3,1.3-0.8
						C390,444.7,389.3,444.1,388.9,443.3"/>
					<path class="st13" d="M389.5,443.1c-0.6,0.2-1,0.8-0.8,1.5c0.2,0.6,0.8,1,1.5,0.8c0.4,0.1,0.7-0.1,0.8-0.5c0-0.1,0-0.2,0-0.3
						C391,443.8,390.3,443.1,389.5,443.1"/>
					<path class="st12" d="M388.9,475.5c-0.7,0.4-1,1.2-0.6,2c0.3,0.5,0.8,0.8,1.3,0.8c0.5,0,1-0.3,1.3-0.8
						C390,476.9,389.3,476.3,388.9,475.5"/>
					<path class="st13" d="M389.5,475.3c-0.2,0-0.5,0.1-0.7,0.2c-0.1,0.2-0.2,0.4-0.2,0.7c0,0.8,0.6,1.5,1.5,1.5c0,0,0,0,0,0
						c0.4,0.1,0.7-0.1,0.8-0.5c0-0.1,0-0.2,0-0.3C391,476,390.3,475.3,389.5,475.3C389.5,475.3,389.5,475.3,389.5,475.3"/>
					<path class="st12" d="M356.7,475.5c-0.7,0.4-1,1.2-0.6,2c0.4,0.7,1.2,1,2,0.6c0.3-0.1,0.5-0.4,0.6-0.6
						C357.9,476.9,357.2,476.3,356.7,475.5"/>
					<path class="st13" d="M357.3,475.3c-0.4-0.1-0.7,0.1-0.8,0.5c0,0.1,0,0.2,0,0.3c0,0.8,0.6,1.5,1.5,1.5c0,0,0,0,0,0
						c0.2,0,0.5-0.1,0.7-0.2c0.1-0.2,0.2-0.4,0.2-0.7C358.8,475.9,358.1,475.3,357.3,475.3C357.3,475.3,357.3,475.3,357.3,475.3"/>
					<path class="st12" d="M356.7,443.3c-0.7,0.4-1,1.2-0.6,2c0.4,0.7,1.2,1,2,0.6c0.3-0.1,0.5-0.4,0.6-0.6
						C357.9,444.7,357.2,444.1,356.7,443.3"/>
					<path class="st13" d="M357.3,443.1c-0.2,0-0.5,0.1-0.7,0.2c-0.1,0.2-0.2,0.4-0.2,0.7c0,0.8,0.7,1.5,1.5,1.5
						c0.2,0,0.5-0.1,0.7-0.2c0.1-0.2,0.2-0.4,0.2-0.7C358.8,443.8,358.1,443.1,357.3,443.1"/>
					<path d="M373.4,485.6c-1.2,0-2.2-1-2.2-2.2v-0.1l-12.3-5.1c-0.4,0.5-1,0.7-1.6,0.7c-1.2,0-2.2-1-2.2-2.2s1-2.2,2.2-2.2
						c1.2,0,2.2,1,2.2,2.2c0,0,0,0,0,0c0,0,0,0.1,0,0.1l12.3,5.1c0.8-0.9,2.2-1,3.1-0.2c0.1,0.1,0.1,0.1,0.2,0.2l12.3-5.1v-0.1
						c0-1.2,1-2.2,2.2-2.2c1.2,0,2.2,1,2.2,2.2c0,1.2-1,2.2-2.2,2.2c-0.6,0-1.2-0.3-1.6-0.7l-12.2,5.1c0,0,0,0.1,0,0.1
						C375.6,484.6,374.7,485.6,373.4,485.6 M373.5,482.7c-0.4,0-0.7,0.3-0.7,0.7c0,0.4,0.3,0.7,0.7,0.7c0.4,0,0.7-0.3,0.7-0.7
						c0,0,0,0,0,0C374.2,483,373.9,482.7,373.5,482.7 M389.6,476c-0.4,0-0.8,0.3-0.8,0.7c0,0.4,0.3,0.8,0.7,0.8c0.1,0,0.1,0,0.2,0
						c0.4,0,0.7-0.4,0.7-0.8C390.2,476.3,389.9,476.1,389.6,476 M357.3,476c-0.4,0-0.7,0.3-0.7,0.7c0,0.4,0.3,0.7,0.7,0.7
						s0.7-0.3,0.7-0.7l0,0C358.1,476.4,357.8,476,357.3,476 M373.5,476.8c-8.9,0-16.2-7.2-16.3-16.1c0-8.9,7.2-16.2,16.1-16.3
						c3.2,0,6.3,0.9,9,2.7c0.4,0.2,0.5,0.6,0.3,1s-0.6,0.5-1,0.3c-0.1,0-0.1-0.1-0.2-0.1c-0.8-0.5-1.7-1-2.6-1.4
						c0.7,0.7,1.3,1.5,1.8,2.4c0.3,0.6,0.7,1.2,0.9,1.8h3c-0.4-0.4-0.8-0.8-1.2-1.2c-0.3-0.3-0.4-0.7-0.1-1c0.3-0.3,0.7-0.4,1-0.1
						c0,0,0.1,0.1,0.1,0.1c6.5,6.1,6.8,16.4,0.7,22.9C382.2,475,377.9,476.8,373.5,476.8 M374.2,470.2v5.2c2-0.3,3.8-1.7,5.3-4.1
						c0.2-0.3,0.4-0.7,0.6-1H374.2z M366.8,470.2c0.2,0.4,0.4,0.7,0.6,1c1.5,2.4,3.3,3.8,5.3,4.1v-5.2L366.8,470.2z M381.7,470.2
						c-0.3,0.6-0.6,1.2-0.9,1.8c-0.5,0.9-1.1,1.7-1.8,2.4c2.2-0.9,4.2-2.3,5.8-4.2L381.7,470.2z M362.2,470.2
						c1.6,1.8,3.5,3.3,5.8,4.2c-0.7-0.7-1.3-1.5-1.8-2.4c-0.4-0.6-0.7-1.2-0.9-1.8L362.2,470.2z M382.3,468.7h3.5
						c1.4-2.2,2.2-4.7,2.4-7.3h-4.6C383.5,463.9,383,466.4,382.3,468.7 M374.1,468.7h6.5c0.9-2.3,1.4-4.8,1.4-7.3h-7.9L374.1,468.7z
						 M366.2,468.7h6.5v-7.3h-7.9C364.8,463.9,365.3,466.4,366.2,468.7 M361.1,468.7h3.5c-0.8-2.4-1.3-4.8-1.3-7.3h-4.6
						C358.8,464,359.6,466.5,361.1,468.7 M383.5,459.9h4.6c-0.1-2.6-0.9-5.1-2.4-7.3h-3.5C383,454.9,383.5,457.4,383.5,459.9
						 M374.1,459.9h7.9c-0.1-2.5-0.5-5-1.4-7.3h-6.5v1.7c0,0.4-0.3,0.8-0.7,0.8c-0.4,0-0.8-0.3-0.8-0.7c0-0.1,0-0.1,0-0.2v-1.7h-6.5
						c-0.9,2.3-1.4,4.8-1.4,7.3h7.9v-2.7c0-0.4,0.3-0.8,0.7-0.8c0.4,0,0.8,0.3,0.8,0.7c0,0.1,0,0.1,0,0.2L374.1,459.9z M358.7,459.9
						h4.6c0.1-2.5,0.5-5,1.3-7.3h-3.5C359.7,454.8,358.8,457.3,358.7,459.9 M374.1,451.1h5.9c-0.2-0.4-0.4-0.7-0.6-1
						c-1.5-2.4-3.3-3.8-5.3-4.1V451.1z M366.8,451.1h5.9V446c-2,0.3-3.8,1.7-5.3,4.1C367.2,450.4,367,450.8,366.8,451.1
						 M362.2,451.1h3c0.3-0.6,0.6-1.2,0.9-1.8c0.5-0.9,1.1-1.7,1.8-2.4C365.7,447.9,363.7,449.3,362.2,451.1 M391.1,473.7
						c-0.1,0-0.2,0-0.3-0.1c-0.4-0.2-0.5-0.6-0.4-0.9c0,0,0,0,0,0l4.3-10.4c-0.9-0.8-1-2.2-0.2-3.1c0.1-0.1,0.1-0.1,0.2-0.2
						l-5.1-12.3h-0.1c-1.2,0-2.2-1-2.2-2.2c0-1.2,1-2.2,2.2-2.2s2.2,1,2.2,2.2c0,0.6-0.3,1.2-0.7,1.6l5.1,12.3h0.1
						c1.2,0,2.2,1,2.2,2.2c0,1.2-1,2.2-2.2,2.2h-0.1l-4.3,10.4C391.7,473.5,391.4,473.7,391.1,473.7 M396.2,459.9
						c-0.4,0-0.7,0.3-0.7,0.7c0,0.4,0.3,0.7,0.7,0.7s0.7-0.3,0.7-0.7l0,0C396.9,460.2,396.6,459.9,396.2,459.9 M389.5,443.8
						c-0.4,0-0.7,0.3-0.7,0.7c0,0.4,0.3,0.7,0.7,0.7c0.4,0,0.7-0.3,0.7-0.7c0,0,0,0,0,0C390.2,444.1,389.9,443.8,389.5,443.8
						 M355.7,473.7c-0.3,0-0.6-0.2-0.7-0.5l-4.3-10.4h-0.1c-1.2,0-2.2-1-2.2-2.2c0-1.2,1-2.2,2.2-2.2h0.1l5.1-12.3
						c-0.9-0.8-1-2.2-0.2-3.1c0.8-0.9,2.2-1,3.1-0.2c0.1,0.1,0.2,0.2,0.2,0.2l12.3-5.1v-0.1c0-1.2,1-2.2,2.2-2.2
						c1.2,0,2.2,1,2.2,2.2c0,0,0,0.1,0,0.1l10.4,4.3c0.4,0.1,0.5,0.6,0.4,0.9c0,0,0,0,0,0c-0.2,0.4-0.6,0.6-1,0.4l-10.4-4.3
						c-0.8,0.9-2.2,1-3.1,0.2c-0.1-0.1-0.1-0.1-0.2-0.2l-12.3,5.1c0,0,0,0.1,0,0.1c0,1.2-1,2.2-2.2,2.2h-0.1l-5.1,12.3
						c0.9,0.8,1,2.2,0.2,3.1c-0.1,0.1-0.1,0.1-0.2,0.2l4.3,10.4c0.2,0.4,0,0.8-0.4,1C355.9,473.7,355.8,473.7,355.7,473.7
						 M350.7,459.9c-0.4,0-0.8,0.3-0.8,0.7c0,0.4,0.3,0.8,0.7,0.8c0.1,0,0.1,0,0.2,0c0.4,0,0.7-0.4,0.7-0.8
						C351.3,460.2,351,459.9,350.7,459.9 M357.3,443.8c-0.4,0-0.7,0.3-0.7,0.7c0,0.4,0.3,0.7,0.7,0.7c0.4,0,0.7-0.3,0.7-0.7l0,0
						C358.1,444.1,357.7,443.8,357.3,443.8 M373.4,437.1c-0.4,0-0.7,0.3-0.7,0.7c0,0.4,0.3,0.7,0.7,0.7c0.4,0,0.7-0.3,0.7-0.7
						c0,0,0,0,0,0C374.1,437.5,373.8,437.1,373.4,437.1"/>
					<path class="st13" d="M389.1,460.7c0,8.6-7,15.6-15.6,15.6c-8.6,0-15.6-7-15.6-15.6c0-8.6,7-15.6,15.6-15.6
						c4.1,0,8.1,1.7,11.1,4.6C387.4,452.6,389.1,456.6,389.1,460.7"/>
					<path class="st12" d="M373.4,445c-0.3,0-0.7,0-1,0c8.6,0.6,15.2,8.1,14.6,16.7c-0.5,7.8-6.8,14.1-14.6,14.6c0.3,0,0.7,0,1,0
						c8.7-0.2,15.5-7.4,15.3-16C388.6,451.9,381.8,445.1,373.4,445"/>
					<path class="st14" d="M365,447.1c-0.3-0.1-0.5,0.1-0.6,0.4c0,0.1,0,0.2,0.1,0.4c0.3-0.2,0.6-0.4,1-0.6L365,447.1"/>
					<path class="st14" d="M357.7,458.6c0,0.1,0.1,0.2,0.2,0.3c0-0.3,0.1-0.6,0.1-0.9C357.8,458.1,357.7,458.4,357.7,458.6"/>
					<path class="st14" d="M364.2,473.5c0,0,0,0.1,0,0.1v0l0,0c0,0.2,0.2,0.4,0.5,0.4h0.1c0.1,0,0.2-0.1,0.3-0.2l0,0
						c-0.3-0.2-0.7-0.4-1-0.7C364.1,473.4,364.1,473.5,364.2,473.5"/>
					<path class="st14" d="M382.1,474.1L382.1,474.1c0.3,0,0.5-0.2,0.6-0.4c0-0.2,0.1-0.3,0.1-0.5c-0.3,0.2-0.6,0.5-1,0.7
						C381.9,474,382,474.1,382.1,474.1"/>
					<path class="st14" d="M382.5,447.5c-0.1-0.3-0.3-0.4-0.6-0.4l-0.4,0.1c0.3,0.2,0.7,0.4,1,0.6
						C382.5,447.7,382.5,447.6,382.5,447.5"/>
					<path class="st14" d="M386.3,451.3c0.1-0.3-0.1-0.5-0.4-0.6c0,0,0,0,0,0c-0.1,0-0.3,0-0.4,0.1c0.2,0.3,0.5,0.6,0.7,0.9
						C386.2,451.5,386.2,451.4,386.3,451.3"/>
					<path class="st15" d="M374.9,451.2c0,0.8-0.7,1.5-1.5,1.5c-0.8,0-1.5-0.7-1.5-1.5c0-0.8,0.7-1.5,1.5-1.5
						C374.3,449.7,374.9,450.4,374.9,451.2C374.9,451.2,374.9,451.2,374.9,451.2"/>
					<path class="st15" d="M369.1,457.8c0,0.8-0.7,1.5-1.5,1.5s-1.5-0.7-1.5-1.5s0.7-1.5,1.5-1.5S369.1,457,369.1,457.8L369.1,457.8
						"/>
					<path class="st15" d="M382.8,461.7c0,0.8-0.7,1.5-1.5,1.5c-0.8,0-1.5-0.7-1.5-1.5c0-0.8,0.7-1.5,1.5-1.5
						C382.1,460.2,382.8,460.9,382.8,461.7"/>
					<path class="st15" d="M364.7,475c-0.8,0-1.5-0.7-1.5-1.5s0.7-1.5,1.5-1.5s1.5,0.7,1.5,1.5c0,0,0,0,0,0
						C366.2,474.4,365.5,475,364.7,475C364.7,475,364.7,475,364.7,475"/>
					<path class="st15" d="M382.3,475.1c-0.8,0-1.5-0.7-1.5-1.5c0-0.8,0.7-1.5,1.5-1.5c0.8,0,1.5,0.7,1.5,1.5c0,0,0,0,0,0
						C383.8,474.4,383.1,475.1,382.3,475.1"/>
					<path class="st15" d="M385.8,452.6c-0.8,0-1.5-0.7-1.5-1.5s0.7-1.5,1.5-1.5c0.8,0,1.5,0.7,1.5,1.5c0,0,0,0,0,0
						C387.3,452,386.6,452.6,385.8,452.6"/>
					<path class="st15" d="M382,449.1c-0.8,0-1.5-0.7-1.5-1.5s0.7-1.5,1.5-1.5c0.8,0,1.5,0.7,1.5,1.5c0,0,0,0,0,0
						C383.5,448.4,382.8,449.1,382,449.1C382,449.1,382,449.1,382,449.1"/>
					<path class="st15" d="M364.7,449.1c-0.8,0-1.5-0.7-1.5-1.5s0.7-1.5,1.5-1.5c0.8,0,1.5,0.7,1.5,1.5c0,0,0,0,0,0
						C366.2,448.4,365.5,449.1,364.7,449.1C364.7,449.1,364.7,449.1,364.7,449.1"/>
				</g>
			</g>
			<g>
				<defs>
					<rect id="SVGID_5_" x="355.8" y="444.4" width="33.7" height="32.5"/>
				</defs>
				<clipPath id="SVGID_6_">
					<use xlink:href="#SVGID_5_"  style="overflow:visible;"/>
				</clipPath>
				<g class="st16">
					<path class="st15" d="M359.3,458.6c0,0.8-0.7,1.5-1.5,1.5c-0.8,0-1.5-0.7-1.5-1.5c0-0.8,0.7-1.5,1.5-1.5
						C358.7,457.1,359.3,457.8,359.3,458.6"/>
					<path d="M388.2,467.1L388.2,467.1c2-4.8,1.6-10.2-1-14.6c0.7-0.8,0.6-2.1-0.2-2.8c-0.6-0.5-1.4-0.6-2.1-0.3
						c-0.3-0.4-0.7-0.7-1.1-1c0.4-1-0.1-2.2-1.2-2.6c-0.7-0.3-1.5-0.1-2.1,0.4c-4.6-2.2-9.9-2.2-14.4,0.1c-0.7-0.8-2-0.9-2.8-0.1
						c-0.6,0.6-0.8,1.5-0.4,2.3c-0.6,0.5-1.1,1-1.5,1.6c-0.4,0.5,0.3,1.1,0.7,0.6c0.4-0.5,0.9-1,1.4-1.4c0.9,0.6,2.2,0.4,2.8-0.5
						c0.1-0.1,0.1-0.2,0.2-0.3c1.8,0.5,3.5,1.2,5.1,2.2c-0.1,0.5-0.1,1,0.2,1.4c-1.3,1.1-2.5,2.4-3.5,3.8c-0.9-0.3-2,0.2-2.4,1.1
						c-2.1,0-4.2,0.2-6.2,0.7c-0.2-0.3-0.5-0.6-0.8-0.8c0.4-1.5,1-2.9,1.8-4.2c0.1-0.2,0.1-0.5-0.2-0.7c-0.2-0.1-0.5-0.1-0.7,0.2
						c-0.9,1.4-1.5,2.9-1.9,4.5c-1.1,0-2,0.9-2,2c0,0.9,0.6,1.7,1.5,1.9c0,4.7,2,9.2,5.5,12.3c-0.4,1,0.1,2.2,1.2,2.6
						c0.7,0.3,1.5,0.1,2-0.4c4.7,2.4,10.2,2.4,14.9,0c0.8,0.8,2,0.8,2.8,0c0.6-0.6,0.7-1.5,0.4-2.2
						C385.9,471.3,387.3,469.3,388.2,467.1 M387.6,466c-1.4-1.4-2.9-2.6-4.5-3.7c0.2-0.7,0-1.5-0.5-2c1.4-2.2,2.4-4.6,3.2-7.1
						c0.2,0,0.5,0,0.7-0.1C388.8,457,389.2,461.8,387.6,466 M364.9,471.6c-0.4-4.1,0.3-8.1,2.1-11.8c1.1,0.3,2.2-0.3,2.5-1.4
						c0-0.1,0-0.1,0-0.2c3.4,0.4,6.7,1.4,9.8,3c-0.1,0.6,0,1.2,0.3,1.7c-3.4,4.4-8,7.7-13.3,9.6C366.1,472,365.5,471.7,364.9,471.6
						 M380.3,461.8c0-0.6,0.4-1,1-1c0.6,0,1,0.4,1,1c0,0.6-0.4,1-1,1c0,0,0,0,0,0C380.7,462.8,380.3,462.3,380.3,461.8 M386.8,451.2
						c0,0.6-0.5,1-1,1c-0.6,0-1-0.5-1-1c0-0.6,0.5-1,1-1c0,0,0,0,0,0C386.4,450.2,386.8,450.6,386.8,451.2
						C386.8,451.2,386.8,451.2,386.8,451.2 M384.2,450.1c-0.6,0.9-0.4,2.2,0.5,2.8c0,0,0.1,0.1,0.1,0.1c-0.7,2.4-1.7,4.7-3,6.9
						c-0.3-0.1-0.6-0.1-0.8-0.1c-1.4-2.9-3.3-5.5-5.7-7.6c0.2-0.4,0.3-1,0.2-1.5c1.5-0.9,3.2-1.6,4.9-2.1c0.5,1,1.8,1.3,2.7,0.8
						c0.1-0.1,0.2-0.1,0.3-0.2C383.6,449.5,383.9,449.8,384.2,450.1 M372.4,451.2c0-0.6,0.5-1,1-1c0.6,0,1,0.5,1,1c0,0.6-0.5,1-1,1
						c0,0,0,0,0,0C372.9,452.2,372.4,451.8,372.4,451.2C372.4,451.2,372.4,451.2,372.4,451.2 M382,446.6c0.6,0,1,0.5,1,1
						c0,0.6-0.5,1-1,1c-0.6,0-1-0.5-1-1C381,447,381.4,446.6,382,446.6L382,446.6 M364.7,448.6c-0.6,0-1-0.5-1-1c0-0.6,0.5-1,1-1
						c0.6,0,1,0.4,1,1C365.7,448.1,365.2,448.6,364.7,448.6C364.7,448.6,364.7,448.6,364.7,448.6 M366.7,447.5c0-0.1,0-0.3-0.1-0.4
						c4.2-2.1,9.2-2.2,13.4-0.1c-0.1,0.2-0.1,0.4-0.1,0.6c-1.8,0.5-3.5,1.3-5.1,2.2c-0.8-0.8-2-0.8-2.8,0c0,0,0,0,0,0
						C370.3,448.8,368.5,448,366.7,447.5 M372.3,452.9c0.7,0.5,1.6,0.5,2.2,0c2.3,2,4.2,4.5,5.5,7.2c-0.1,0.1-0.2,0.1-0.2,0.2
						c-3.2-1.6-6.7-2.7-10.3-3.1c-0.1-0.3-0.3-0.6-0.5-0.8C369.9,455.1,371,453.9,372.3,452.9 M367.5,456.8c0.6,0,1,0.5,1,1
						c0,0.6-0.5,1-1,1c-0.6,0-1-0.5-1-1S367,456.8,367.5,456.8L367.5,456.8 M356.8,458.6c0-0.6,0.4-1,1-1c0.6,0,1,0.4,1,1
						c0,0.6-0.4,1-1,1c0,0,0,0,0,0C357.2,459.6,356.8,459.1,356.8,458.6 M358.3,460.5c0.9-0.2,1.5-1,1.5-1.9
						c1.9-0.3,3.8-0.5,5.8-0.6c0,0.5,0.2,0.9,0.6,1.2c-1.9,3.9-2.7,8.2-2.3,12.5c-0.2,0.1-0.4,0.2-0.5,0.3
						C360.2,469,358.4,464.9,358.3,460.5 M364.6,474.5c-0.6,0-1-0.5-0.9-1.1c0-0.5,0.4-0.9,0.9-0.9c0.6,0,1,0.5,1,1
						C365.6,474.1,365.1,474.5,364.6,474.5C364.6,474.5,364.6,474.5,364.6,474.5 M373.3,475.8c-2.4,0-4.8-0.6-6.9-1.7
						c0.1-0.3,0.1-0.5,0.1-0.8c5.4-1.9,10.2-5.4,13.8-9.9c0.3,0.1,0.6,0.2,0.9,0.2c0.2,0.8,0.4,1.6,0.5,2.5c0.1,0.3,0.3,0.4,0.6,0.4
						c0.2-0.1,0.4-0.3,0.4-0.5c-0.1-0.9-0.3-1.8-0.5-2.6c0.1-0.1,0.2-0.2,0.3-0.3c1.6,1.1,3.2,2.4,4.6,3.8c-0.9,1.9-2.1,3.7-3.7,5.1
						c-0.2-0.1-0.3-0.2-0.5-0.3c0.1-0.9,0.1-1.8,0.1-2.8c0-0.3-0.3-0.5-0.6-0.4c-0.2,0-0.4,0.2-0.4,0.4c0,0.9,0,1.8-0.1,2.7
						c-1.1,0.2-1.8,1.2-1.6,2.3c0,0.1,0,0.1,0,0.2c-2.1,1.1-4.5,1.7-6.9,1.7 M382.3,474.6c-0.6,0-1-0.5-1-1c0-0.6,0.5-1,1-1
						c0.6,0,1,0.4,1,1C383.3,474.2,382.9,474.6,382.3,474.6"/>
				</g>
			</g>
		</g>
	</g>
</g>
<g class="st17">
	<path class="st5" d="M329.4,521.4v17.4h-2.8v-11.9l-5.3,11.9h-2l-5.3-11.9v11.9h-2.8v-17.4h3.1l6.1,13.6l6.1-13.6H329.4z"/>
	<path class="st5" d="M333.3,522.7c-0.3-0.3-0.5-0.8-0.5-1.3s0.2-1,0.5-1.3c0.4-0.4,0.8-0.5,1.3-0.5c0.5,0,0.9,0.2,1.3,0.5
		c0.3,0.3,0.5,0.8,0.5,1.3s-0.2,1-0.5,1.3c-0.4,0.3-0.8,0.5-1.3,0.5C334.1,523.2,333.7,523,333.3,522.7z M336,525v13.8h-2.9V525H336
		z"/>
	<path class="st5" d="M349.6,525.5c0.9,0.5,1.5,1.1,2,2c0.5,0.9,0.7,2,0.7,3.2v8.1h-2.8v-7.7c0-1.2-0.3-2.2-0.9-2.8
		c-0.6-0.7-1.5-1-2.5-1s-1.9,0.3-2.5,1s-0.9,1.6-0.9,2.8v7.7h-2.9V525h2.9v1.6c0.5-0.6,1.1-1,1.8-1.3c0.7-0.3,1.5-0.5,2.3-0.5
		C347.8,524.8,348.8,525,349.6,525.5z"/>
	<path class="st5" d="M355.9,528.2c0.6-1.1,1.4-1.9,2.3-2.5c1-0.6,2.1-0.9,3.3-0.9c0.9,0,1.8,0.2,2.7,0.6s1.6,0.9,2.1,1.6v-6.7h2.9
		v18.5h-2.9v-2.1c-0.5,0.7-1.1,1.2-1.9,1.7c-0.8,0.4-1.8,0.6-2.8,0.6c-1.2,0-2.3-0.3-3.3-0.9c-1-0.6-1.8-1.5-2.3-2.5
		c-0.6-1.1-0.9-2.3-0.9-3.7C355,530.4,355.3,529.2,355.9,528.2z M365.7,529.4c-0.4-0.7-0.9-1.2-1.5-1.6c-0.6-0.4-1.3-0.6-2.1-0.6
		c-0.7,0-1.4,0.2-2,0.5c-0.6,0.4-1.1,0.9-1.5,1.6s-0.6,1.5-0.6,2.5s0.2,1.8,0.6,2.5c0.4,0.7,0.9,1.3,1.5,1.6s1.3,0.6,2,0.6
		c0.7,0,1.4-0.2,2.1-0.5c0.6-0.4,1.1-0.9,1.5-1.6c0.4-0.7,0.6-1.5,0.6-2.5C366.3,530.9,366.1,530.1,365.7,529.4z"/>
	<path class="st5" d="M375.5,538.3c-0.9-0.4-1.7-1-2.2-1.7s-0.8-1.6-0.8-2.6h3c0.1,0.8,0.4,1.4,0.9,1.8c0.5,0.5,1.3,0.7,2.2,0.7
		c1,0,1.8-0.2,2.3-0.7c0.5-0.5,0.8-1.1,0.8-1.8c0-0.6-0.2-1.1-0.5-1.4c-0.3-0.4-0.8-0.6-1.3-0.8c-0.5-0.2-1.2-0.4-2.1-0.7
		c-1.1-0.3-2.1-0.6-2.8-0.9c-0.7-0.3-1.3-0.8-1.8-1.4c-0.5-0.7-0.8-1.5-0.8-2.6c0-1,0.3-1.9,0.8-2.6s1.2-1.3,2.1-1.7
		c0.9-0.4,1.9-0.6,3.1-0.6c1.7,0,3.1,0.4,4.1,1.3c1.1,0.8,1.7,2,1.8,3.5h-3.2c0-0.6-0.3-1.2-0.9-1.6c-0.5-0.5-1.3-0.7-2.2-0.7
		c-0.8,0-1.5,0.2-2,0.6s-0.8,1-0.8,1.8c0,0.5,0.2,1,0.5,1.3s0.7,0.6,1.2,0.8s1.2,0.4,2,0.7c1.2,0.3,2.1,0.6,2.8,0.9
		c0.7,0.3,1.3,0.8,1.9,1.5c0.5,0.7,0.8,1.5,0.8,2.6c0,0.9-0.2,1.7-0.7,2.5c-0.5,0.8-1.2,1.4-2.1,1.9c-0.9,0.5-2,0.7-3.2,0.7
		C377.5,539,376.5,538.8,375.5,538.3z"/>
	<path class="st5" d="M392.9,525.4c0.8-0.4,1.8-0.7,2.8-0.7c1.2,0,2.3,0.3,3.3,0.9c1,0.6,1.8,1.4,2.3,2.5c0.6,1.1,0.8,2.3,0.8,3.7
		c0,1.4-0.3,2.6-0.8,3.7c-0.6,1.1-1.3,1.9-2.3,2.5c-1,0.6-2.1,0.9-3.3,0.9c-1.1,0-2-0.2-2.8-0.6c-0.8-0.4-1.5-1-2-1.6v8.5H388V525
		h2.8v2C391.4,526.4,392,525.9,392.9,525.4z M398.7,529.4c-0.4-0.7-0.9-1.2-1.5-1.6c-0.6-0.4-1.3-0.5-2.1-0.5c-0.7,0-1.4,0.2-2,0.6
		c-0.6,0.4-1.2,0.9-1.5,1.6s-0.6,1.5-0.6,2.5c0,1,0.2,1.8,0.6,2.5c0.4,0.7,0.9,1.2,1.5,1.6s1.3,0.5,2,0.5c0.7,0,1.4-0.2,2.1-0.6
		c0.6-0.4,1.2-0.9,1.5-1.6c0.4-0.7,0.6-1.5,0.6-2.5S399.1,530.1,398.7,529.4z"/>
	<path class="st5" d="M404.9,528.2c0.6-1.1,1.4-1.9,2.4-2.5c1-0.6,2.1-0.9,3.3-0.9c1.1,0,2,0.2,2.8,0.6c0.8,0.4,1.5,1,1.9,1.6v-2
		h2.9v13.8h-2.9v-2c-0.5,0.6-1.1,1.2-2,1.6c-0.8,0.4-1.8,0.6-2.9,0.6c-1.2,0-2.3-0.3-3.3-0.9c-1-0.6-1.8-1.5-2.3-2.5
		s-0.9-2.3-0.9-3.7C404,530.4,404.3,529.2,404.9,528.2z M414.7,529.4c-0.4-0.7-0.9-1.2-1.5-1.6c-0.6-0.4-1.3-0.6-2.1-0.6
		s-1.4,0.2-2,0.5s-1.1,0.9-1.5,1.6c-0.4,0.7-0.6,1.5-0.6,2.5s0.2,1.8,0.6,2.5c0.4,0.7,0.9,1.3,1.6,1.6c0.6,0.4,1.3,0.6,2,0.6
		c0.7,0,1.4-0.2,2.1-0.5c0.6-0.4,1.1-0.9,1.5-1.6c0.4-0.7,0.6-1.5,0.6-2.5C415.3,530.9,415.1,530.1,414.7,529.4z"/>
	<path class="st5" d="M426.5,525.4c0.7-0.4,1.5-0.6,2.5-0.6v3h-0.7c-1.1,0-2,0.3-2.5,0.8c-0.6,0.6-0.9,1.5-0.9,3v7.3h-2.9V525h2.9v2
		C425.2,526.3,425.8,525.8,426.5,525.4z"/>
	<path class="st5" d="M437,531.9l6.3,6.9h-3.8l-5.1-5.9v5.9h-2.8v-18.5h2.8V531l5-6h3.9L437,531.9z"/>
</g>
</svg>
